<svg width="26" height="26" viewBox="0 0 26 26" fill="none" xmlns="http://www.w3.org/2000/svg">
<g clip-path="url(#clip0_52_126)">
<path d="M19.9062 0H6.09375C2.72826 0 0 2.72826 0 6.09375V19.9062C0 23.2717 2.72826 26 6.09375 26H19.9062C23.2717 26 26 23.2717 26 19.9062V6.09375C26 2.72826 23.2717 0 19.9062 0Z" fill="white"/>
<path d="M19.9062 0H6.09375C2.72826 0 0 2.72826 0 6.09375V19.9062C0 23.2717 2.72826 26 6.09375 26H19.9062C23.2717 26 26 23.2717 26 19.9062V6.09375C26 2.72826 23.2717 0 19.9062 0Z" fill="#0A66C2"/>
<path d="M18.7601 22.1086H21.7329C21.8406 22.1086 21.9439 22.0658 22.0201 21.9897C22.0963 21.9135 22.1391 21.8102 22.1391 21.7025L22.1406 15.4217C22.1406 12.1389 21.4332 9.61553 17.5969 9.61553C16.1386 9.5613 14.7633 10.3131 14.0212 11.5684C14.0176 11.5745 14.0121 11.5792 14.0055 11.5819C13.9989 11.5845 13.9916 11.585 13.9848 11.5831C13.9779 11.5813 13.9719 11.5772 13.9676 11.5716C13.9632 11.566 13.9608 11.5591 13.9608 11.552V10.3248C13.9608 10.2171 13.918 10.1138 13.8418 10.0376C13.7656 9.9614 13.6623 9.91859 13.5545 9.91859H10.7334C10.6257 9.91859 10.5224 9.9614 10.4462 10.0376C10.37 10.1138 10.3272 10.2171 10.3272 10.3248V21.7019C10.3272 21.8096 10.37 21.913 10.4462 21.9891C10.5224 22.0653 10.6257 22.1081 10.7334 22.1081H13.706C13.8137 22.1081 13.917 22.0653 13.9932 21.9891C14.0694 21.913 14.1122 21.8096 14.1122 21.7019V16.0781C14.1122 14.4879 14.4139 12.9479 16.3853 12.9479C18.3287 12.9479 18.3539 14.7675 18.3539 16.181V21.7024C18.3539 21.8101 18.3967 21.9135 18.4729 21.9896C18.549 22.0658 18.6524 22.1086 18.7601 22.1086ZM3.85938 6.05587C3.85938 7.26091 4.85134 8.25236 6.05638 8.25236C7.26111 8.25226 8.25246 7.2602 8.25246 6.05546C8.25226 4.85073 7.2608 3.85938 6.05597 3.85938C4.85083 3.85938 3.85938 4.85093 3.85938 6.05587ZM4.56615 22.1086H7.54264C7.65038 22.1086 7.75372 22.0658 7.8299 21.9896C7.90609 21.9135 7.94889 21.8101 7.94889 21.7024V10.3248C7.94889 10.2171 7.90609 10.1138 7.8299 10.0376C7.75372 9.9614 7.65038 9.91859 7.54264 9.91859H4.56615C4.4584 9.91859 4.35507 9.9614 4.27889 10.0376C4.2027 10.1138 4.1599 10.2171 4.1599 10.3248V21.7024C4.1599 21.8101 4.2027 21.9135 4.27889 21.9896C4.35507 22.0658 4.4584 22.1086 4.56615 22.1086Z" fill="white"/>
</g>
<defs>
<clipPath id="clip0_52_126">
<rect width="26" height="26" fill="white"/>
</clipPath>
</defs>
</svg>
