<svg width="26" height="26" viewBox="0 0 26 26" fill="none" xmlns="http://www.w3.org/2000/svg">
<path d="M13 0C9.55297 0 6.24406 1.37048 3.80859 3.80758C1.37061 6.24564 0.000675329 9.55212 0 13C0 16.4464 1.37109 19.7553 3.80859 22.1924C6.24406 24.6295 9.55297 26 13 26C16.447 26 19.7559 24.6295 22.1914 22.1924C24.6289 19.7553 26 16.4464 26 13C26 9.55358 24.6289 6.24467 22.1914 3.80758C19.7559 1.37048 16.447 0 13 0Z" fill="url(#paint0_linear_94_3)"/>
<path d="M5.96229 13.166C9.72109 11.4727 12.227 10.3562 13.4799 9.81684C17.0614 8.27664 17.8047 8.00914 18.2902 8.00008C18.397 7.99831 18.6347 8.0256 18.7898 8.15529C18.9187 8.26466 18.9549 8.41258 18.9731 8.51643C18.9892 8.62018 19.0113 8.85664 18.9932 9.04122C18.7998 11.1495 17.9598 16.2657 17.5328 18.6272C17.3535 19.6263 16.997 19.9613 16.6525 19.9941C15.9032 20.0653 15.3351 19.4824 14.61 18.9909C13.4759 18.2216 12.8353 17.7428 11.7334 16.9922C10.4604 16.1247 11.2863 15.6478 12.0114 14.8687C12.2008 14.6647 15.5003 11.5616 15.5627 11.2802C15.5708 11.245 15.5789 11.1137 15.5023 11.0445C15.4278 10.9752 15.317 10.9989 15.2364 11.0177C15.1216 11.0443 13.3107 12.2835 9.79764 14.7349C9.28397 15.1003 8.81866 15.2785 8.39967 15.2691C7.94039 15.2589 7.05407 14.9999 6.39538 14.7787C5.58963 14.5072 4.94705 14.3637 5.00345 13.9026C5.03165 13.6626 5.35193 13.417 5.96229 13.166Z" fill="white"/>
<defs>
<linearGradient id="paint0_linear_94_3" x1="1300" y1="0" x2="1300" y2="2600" gradientUnits="userSpaceOnUse">
<stop stop-color="#2AABEE"/>
<stop offset="1" stop-color="#229ED9"/>
</linearGradient>
</defs>
</svg>
