<svg width="92" height="20" viewBox="0 0 92 20" fill="none" xmlns="http://www.w3.org/2000/svg">
<path d="M4.18819 19.6287V16.2379H8.69306C9.50095 16.2379 10.1069 16.026 10.5108 15.6022C10.9148 15.1783 11.1167 14.5779 11.1167 13.8008C11.1167 13.0238 10.9148 12.4322 10.5108 12.026C10.1069 11.6022 9.50095 11.3902 8.69306 11.3902H4.18819V8.76772H8.48231C9.81708 8.76772 11.0026 8.93549 12.0388 9.27104C13.075 9.58892 13.8917 10.1099 14.4888 10.8339C15.0859 11.558 15.3845 12.5381 15.3845 13.7743V14.1452C15.3845 15.2931 15.1211 16.2821 14.5942 17.1121C14.0673 17.9245 13.2945 18.5514 12.2759 18.9929C11.2572 19.4167 9.99271 19.6287 8.48231 19.6287H4.18819ZM0.5 19.6287V-0.000488281H4.71508V19.6287H0.5ZM4.18819 10.7015V8.10547H7.98176C8.80722 8.10547 9.40435 7.89355 9.77317 7.46971C10.142 7.04587 10.3264 6.48075 10.3264 5.77435C10.3264 5.03263 10.142 4.44984 9.77317 4.026C9.40435 3.60216 8.80722 3.39024 7.98176 3.39024H4.18819V-0.000488281H7.71832C9.93124 -0.000488281 11.6261 0.467503 12.8028 1.40349C13.997 2.33947 14.5942 3.6728 14.5942 5.40349V5.80084C14.5942 7.00172 14.2868 7.96419 13.6721 8.68825C13.075 9.41232 12.2583 9.93329 11.2221 10.2512C10.2035 10.5514 9.03553 10.7015 7.71832 10.7015H4.18819Z" fill="#1D2BC2"/>
<path d="M23.6698 19.9995C22.4404 19.9995 21.3515 19.7876 20.4031 19.3638C19.4722 18.9399 18.6907 18.3748 18.0584 17.6684C17.4437 16.9443 16.9695 16.1408 16.6358 15.2578C16.3197 14.3571 16.1617 13.4388 16.1617 12.5028V11.973C16.1617 11.0017 16.3197 10.0746 16.6358 9.19156C16.9695 8.2909 17.4437 7.48737 18.0584 6.78097C18.6731 6.07457 19.4371 5.51828 20.3504 5.11209C21.2812 4.68825 22.335 4.47633 23.5117 4.47633C25.0572 4.47633 26.3569 4.82953 27.4106 5.53594C28.482 6.22468 29.2986 7.13417 29.8607 8.26441C30.4227 9.37699 30.7037 10.5955 30.7037 11.92V13.3505H17.9267V10.9399H28.1483L26.7784 12.0525C26.7784 11.1871 26.6554 10.4454 26.4096 9.82733C26.1637 9.20922 25.7949 8.74124 25.3031 8.42335C24.8289 8.08781 24.2318 7.92004 23.5117 7.92004C22.7741 7.92004 22.1506 8.08781 21.6413 8.42335C21.1319 8.75889 20.7455 9.25337 20.4821 9.9068C20.2187 10.5426 20.0869 11.3284 20.0869 12.2644C20.0869 13.1298 20.2099 13.8891 20.4558 14.5426C20.7016 15.1783 21.088 15.6728 21.6149 16.026C22.1418 16.3792 22.8267 16.5558 23.6698 16.5558C24.4425 16.5558 25.0748 16.4057 25.5665 16.1055C26.0583 15.8053 26.392 15.4344 26.5676 14.9929H30.4402C30.2295 15.9642 29.8167 16.8295 29.202 17.5889C28.5873 18.3483 27.8146 18.9399 26.8838 19.3638C25.9529 19.7876 24.8816 19.9995 23.6698 19.9995Z" fill="#1D2BC2"/>
<path d="M40.8995 19.4962V15.2048H40.1882V10.5426C40.1882 9.80084 40.0126 9.24455 39.6613 8.87368C39.3101 8.50282 38.7481 8.31739 37.9753 8.31739C37.5889 8.31739 37.0796 8.32622 36.4473 8.34388C35.8151 8.36154 35.1652 8.38803 34.4979 8.42335C33.8305 8.45867 33.2246 8.49399 32.6801 8.52931V4.95315C33.0841 4.91783 33.5582 4.88251 34.1027 4.84719C34.6471 4.81187 35.2092 4.78538 35.7887 4.76772C36.3683 4.75006 36.9127 4.74123 37.4221 4.74123C38.8973 4.74123 40.1355 4.95315 41.1366 5.377C42.1552 5.80084 42.928 6.44543 43.4549 7.31077C43.9818 8.15845 44.2452 9.25337 44.2452 10.5955V19.4962H40.8995ZM36.2893 19.8671C35.2531 19.8671 34.3398 19.6816 33.5495 19.3108C32.7767 18.9399 32.1708 18.4101 31.7317 17.7214C31.2926 17.015 31.0731 16.1761 31.0731 15.2048C31.0731 14.1452 31.3453 13.2799 31.8898 12.6088C32.4342 11.92 33.1982 11.4167 34.1817 11.0989C35.1652 10.7633 36.298 10.5955 37.5801 10.5955H40.6624V12.9532H37.5538C36.8162 12.9532 36.2454 13.1386 35.8414 13.5094C35.455 13.8626 35.2618 14.3483 35.2618 14.9664C35.2618 15.5492 35.455 16.026 35.8414 16.3969C36.2454 16.7501 36.8162 16.9267 37.5538 16.9267C38.028 16.9267 38.4495 16.8472 38.8183 16.6883C39.2047 16.5117 39.5208 16.2203 39.7667 15.8141C40.0126 15.4079 40.1531 14.8428 40.1882 14.1187L41.1893 15.1783C41.1015 16.1849 40.8556 17.0326 40.4517 17.7214C40.0653 18.4101 39.5208 18.9399 38.8183 19.3108C38.1334 19.6816 37.2903 19.8671 36.2893 19.8671Z" fill="#1D2BC2"/>
<path d="M52.9849 19.9995C51.738 19.9995 50.6491 19.7964 49.7182 19.3902C48.805 18.9664 48.041 18.4013 47.4263 17.6949C46.8116 16.9885 46.355 16.1938 46.0564 15.3108C45.7578 14.4101 45.6085 13.483 45.6085 12.5293V12.026C45.6085 11.037 45.7666 10.0922 46.0827 9.19156C46.3989 8.27324 46.8643 7.46088 47.479 6.75448C48.0937 6.04808 48.8577 5.49179 49.7709 5.08561C50.7018 4.67942 51.7643 4.47633 52.9586 4.47633C54.2582 4.47633 55.4086 4.7324 56.4097 5.24454C57.4108 5.73903 58.2099 6.4366 58.807 7.33726C59.4041 8.23792 59.7378 9.27104 59.8081 10.4366H55.672C55.6018 9.78318 55.3383 9.23572 54.8817 8.79422C54.4426 8.33505 53.8016 8.10547 52.9586 8.10547C52.2561 8.10547 51.6677 8.28207 51.1935 8.63527C50.7369 8.98847 50.3944 9.47412 50.1661 10.0922C49.9378 10.7103 49.8236 11.4432 49.8236 12.2909C49.8236 13.0679 49.929 13.7743 50.1398 14.4101C50.3505 15.0282 50.6842 15.5139 51.1408 15.8671C51.615 16.2026 52.2297 16.3704 52.9849 16.3704C53.5469 16.3704 54.0211 16.2732 54.4075 16.079C54.8115 15.8671 55.1276 15.5845 55.3559 15.2313C55.6018 14.8604 55.7511 14.4366 55.8038 13.9598H59.9135C59.8608 15.1607 59.5271 16.2203 58.9124 17.1386C58.2977 18.0392 57.481 18.7457 56.4624 19.2578C55.4437 19.7523 54.2846 19.9995 52.9849 19.9995Z" fill="#1D2BC2"/>
<path d="M68.3259 19.9995C67.0614 19.9995 65.9374 19.8053 64.9539 19.4167C63.9703 19.0105 63.1361 18.4631 62.4511 17.7743C61.7838 17.0856 61.2744 16.2997 60.9232 15.4167C60.5719 14.5161 60.3963 13.5713 60.3963 12.5823V11.973C60.3963 10.9664 60.5719 10.0128 60.9232 9.1121C61.292 8.19377 61.8189 7.39024 62.5038 6.7015C63.2064 6.01276 64.0494 5.47413 65.0329 5.08561C66.0164 4.67942 67.1141 4.47633 68.3259 4.47633C69.5729 4.47633 70.6793 4.67942 71.6453 5.08561C72.6288 5.47413 73.4631 6.01276 74.148 6.7015C74.833 7.39024 75.3598 8.19377 75.7287 9.1121C76.0975 10.0128 76.2819 10.9664 76.2819 11.973V12.5823C76.2819 13.5713 76.1063 14.5161 75.755 15.4167C75.4037 16.2997 74.8856 17.0856 74.2007 17.7743C73.5333 18.4631 72.7078 19.0105 71.7243 19.4167C70.7408 19.8053 69.608 19.9995 68.3259 19.9995ZM68.3259 16.4234C69.1514 16.4234 69.8363 16.2468 70.3808 15.8936C70.9252 15.5404 71.3379 15.0459 71.6189 14.4101C71.9175 13.7743 72.0668 13.0679 72.0668 12.2909C72.0668 11.4609 71.9175 10.7368 71.6189 10.1187C71.3204 9.48296 70.8901 8.97965 70.3281 8.60878C69.7836 8.23792 69.1162 8.05249 68.3259 8.05249C67.5531 8.05249 66.8858 8.23792 66.3238 8.60878C65.7618 8.97965 65.3315 9.48296 65.0329 10.1187C64.7519 10.7368 64.6114 11.4609 64.6114 12.2909C64.6114 13.0679 64.7519 13.7743 65.0329 14.4101C65.3139 15.0459 65.7354 15.5404 66.2974 15.8936C66.8594 16.2468 67.5356 16.4234 68.3259 16.4234Z" fill="#1D2BC2"/>
<path d="M77.9064 19.4962V4.97964H81.2521V11.2048H81.015C81.015 9.72137 81.1994 8.48516 81.5682 7.4962C81.9546 6.50724 82.5342 5.76552 83.3069 5.27104C84.0797 4.77656 85.0193 4.52931 86.1258 4.52931H86.3102C87.9962 4.52931 89.2783 5.08561 90.1564 6.19819C91.0522 7.29311 91.5 8.96198 91.5 11.2048V19.4962H87.2849V10.9664C87.2849 10.1894 87.0566 9.5536 86.6 9.05911C86.1433 8.56463 85.5286 8.31739 84.7559 8.31739C83.9655 8.31739 83.3245 8.57346 82.8327 9.0856C82.3586 9.58009 82.1215 10.2335 82.1215 11.0459V19.4962H77.9064Z" fill="#1D2BC2"/>
</svg>
