<svg width="192" height="43" viewBox="0 0 192 43" fill="none" xmlns="http://www.w3.org/2000/svg">
<rect width="38" height="27" transform="translate(0 15)" fill="#212121"/>
<path d="M18.1591 25H16.0455C15.9205 24.392 15.7017 23.858 15.3892 23.3977C15.0824 22.9375 14.7074 22.5511 14.2642 22.2386C13.8267 21.9205 13.3409 21.6818 12.8068 21.5227C12.2727 21.3636 11.7159 21.2841 11.1364 21.2841C10.0795 21.2841 9.12216 21.5511 8.2642 22.0852C7.41193 22.6193 6.73295 23.4062 6.22727 24.446C5.72727 25.4858 5.47727 26.7614 5.47727 28.2727C5.47727 29.7841 5.72727 31.0597 6.22727 32.0994C6.73295 33.1392 7.41193 33.9261 8.2642 34.4602C9.12216 34.9943 10.0795 35.2614 11.1364 35.2614C11.7159 35.2614 12.2727 35.1818 12.8068 35.0227C13.3409 34.8636 13.8267 34.6278 14.2642 34.3153C14.7074 33.9972 15.0824 33.608 15.3892 33.1477C15.7017 32.6818 15.9205 32.1477 16.0455 31.5455H18.1591C18 32.4375 17.7102 33.2358 17.2898 33.9403C16.8693 34.6449 16.3466 35.2443 15.7216 35.7386C15.0966 36.2273 14.3949 36.5994 13.6165 36.8551C12.8438 37.1108 12.017 37.2386 11.1364 37.2386C9.64773 37.2386 8.32386 36.875 7.16477 36.1477C6.00568 35.4205 5.09375 34.3864 4.42898 33.0455C3.7642 31.7045 3.43182 30.1136 3.43182 28.2727C3.43182 26.4318 3.7642 24.8409 4.42898 23.5C5.09375 22.1591 6.00568 21.125 7.16477 20.3977C8.32386 19.6705 9.64773 19.3068 11.1364 19.3068C12.017 19.3068 12.8438 19.4347 13.6165 19.6903C14.3949 19.946 15.0966 20.321 15.7216 20.8153C16.3466 21.304 16.8693 21.9006 17.2898 22.6051C17.7102 23.304 18 24.1023 18.1591 25ZM20.0746 19.5455H22.495L27.3359 27.6932H27.5405L32.3814 19.5455H34.8018L28.495 29.8068V37H26.3814V29.8068L20.0746 19.5455Z" fill="white"/>
<path d="M41.1136 37V19.5455H47.0114C48.375 19.5455 49.4943 19.7784 50.3693 20.2443C51.2443 20.7045 51.892 21.3381 52.3125 22.1449C52.733 22.9517 52.9432 23.8693 52.9432 24.8977C52.9432 25.9261 52.733 26.8381 52.3125 27.6335C51.892 28.429 51.2472 29.054 50.3778 29.5085C49.5085 29.9574 48.3977 30.1818 47.0455 30.1818H42.2727V28.2727H46.9773C47.9091 28.2727 48.6591 28.1364 49.2273 27.8636C49.8011 27.5909 50.2159 27.2045 50.4716 26.7045C50.733 26.1989 50.8636 25.5966 50.8636 24.8977C50.8636 24.1989 50.733 23.5881 50.4716 23.0653C50.2102 22.5426 49.7926 22.1392 49.2188 21.8551C48.6449 21.5653 47.8864 21.4205 46.9432 21.4205H43.2273V37H41.1136ZM49.3295 29.1591L53.625 37H51.1705L46.9432 29.1591H49.3295ZM56.4652 37V19.5455H66.9993V21.4205H58.5788V27.3182H66.4538V29.1932H58.5788V35.125H67.1357V37H56.4652ZM84.6499 19.5455V37H82.6044L73.093 23.2955H72.9226V37H70.8089V19.5455H72.8544L82.3999 33.2841H82.5703V19.5455H84.6499ZM103.607 28.2727C103.607 30.1136 103.274 31.7045 102.609 33.0455C101.945 34.3864 101.033 35.4205 99.8736 36.1477C98.7145 36.875 97.3906 37.2386 95.902 37.2386C94.4134 37.2386 93.0895 36.875 91.9304 36.1477C90.7713 35.4205 89.8594 34.3864 89.1946 33.0455C88.5298 31.7045 88.1974 30.1136 88.1974 28.2727C88.1974 26.4318 88.5298 24.8409 89.1946 23.5C89.8594 22.1591 90.7713 21.125 91.9304 20.3977C93.0895 19.6705 94.4134 19.3068 95.902 19.3068C97.3906 19.3068 98.7145 19.6705 99.8736 20.3977C101.033 21.125 101.945 22.1591 102.609 23.5C103.274 24.8409 103.607 26.4318 103.607 28.2727ZM101.561 28.2727C101.561 26.7614 101.308 25.4858 100.803 24.446C100.303 23.4062 99.6236 22.6193 98.7656 22.0852C97.9134 21.5511 96.9588 21.2841 95.902 21.2841C94.8452 21.2841 93.8878 21.5511 93.0298 22.0852C92.1776 22.6193 91.4986 23.4062 90.9929 24.446C90.4929 25.4858 90.2429 26.7614 90.2429 28.2727C90.2429 29.7841 90.4929 31.0597 90.9929 32.0994C91.4986 33.1392 92.1776 33.9261 93.0298 34.4602C93.8878 34.9943 94.8452 35.2614 95.902 35.2614C96.9588 35.2614 97.9134 34.9943 98.7656 34.4602C99.6236 33.9261 100.303 33.1392 100.803 32.0994C101.308 31.0597 101.561 29.7841 101.561 28.2727ZM107.056 19.5455L112.238 34.2386H112.442L117.624 19.5455H119.84L113.431 37H111.249L104.84 19.5455H107.056ZM121.775 37H119.559L125.968 19.5455H128.15L134.559 37H132.343L127.127 22.3068H126.991L121.775 37ZM122.593 30.1818H131.525V32.0568H122.593V30.1818ZM134.284 21.4205V19.5455H147.375V21.4205H141.886V37H139.773V21.4205H134.284ZM152.751 19.5455V37H150.637V19.5455H152.751ZM171.716 28.2727C171.716 30.1136 171.384 31.7045 170.719 33.0455C170.054 34.3864 169.142 35.4205 167.983 36.1477C166.824 36.875 165.5 37.2386 164.011 37.2386C162.523 37.2386 161.199 36.875 160.04 36.1477C158.881 35.4205 157.969 34.3864 157.304 33.0455C156.639 31.7045 156.307 30.1136 156.307 28.2727C156.307 26.4318 156.639 24.8409 157.304 23.5C157.969 22.1591 158.881 21.125 160.04 20.3977C161.199 19.6705 162.523 19.3068 164.011 19.3068C165.5 19.3068 166.824 19.6705 167.983 20.3977C169.142 21.125 170.054 22.1591 170.719 23.5C171.384 24.8409 171.716 26.4318 171.716 28.2727ZM169.67 28.2727C169.67 26.7614 169.418 25.4858 168.912 24.446C168.412 23.4062 167.733 22.6193 166.875 22.0852C166.023 21.5511 165.068 21.2841 164.011 21.2841C162.955 21.2841 161.997 21.5511 161.139 22.0852C160.287 22.6193 159.608 23.4062 159.102 24.446C158.602 25.4858 158.352 26.7614 158.352 28.2727C158.352 29.7841 158.602 31.0597 159.102 32.0994C159.608 33.1392 160.287 33.9261 161.139 34.4602C161.997 34.9943 162.955 35.2614 164.011 35.2614C165.068 35.2614 166.023 34.9943 166.875 34.4602C167.733 33.9261 168.412 33.1392 168.912 32.0994C169.418 31.0597 169.67 29.7841 169.67 28.2727ZM189.111 19.5455V37H187.065L177.554 23.2955H177.384V37H175.27V19.5455H177.315L186.861 33.2841H187.031V19.5455H189.111Z" fill="#212121"/>
<path d="M169.074 16.8636V6.36364H170.207V7.5767H170.347C170.433 7.44413 170.552 7.27509 170.705 7.0696C170.86 6.8608 171.082 6.67519 171.371 6.51278C171.662 6.34706 172.057 6.2642 172.554 6.2642C173.197 6.2642 173.764 6.42495 174.254 6.74645C174.745 7.06794 175.128 7.52367 175.403 8.11364C175.678 8.7036 175.815 9.39962 175.815 10.2017C175.815 11.0104 175.678 11.7114 175.403 12.3047C175.128 12.8946 174.746 13.352 174.259 13.6768C173.772 13.9983 173.21 14.1591 172.574 14.1591C172.083 14.1591 171.691 14.0779 171.396 13.9155C171.101 13.7498 170.874 13.5625 170.714 13.3537C170.555 13.1416 170.433 12.9659 170.347 12.8267H170.247V16.8636H169.074ZM170.227 10.1818C170.227 10.7585 170.312 11.2673 170.481 11.7081C170.65 12.1456 170.897 12.4886 171.222 12.7372C171.546 12.9825 171.944 13.1051 172.415 13.1051C172.905 13.1051 173.315 12.9759 173.643 12.7173C173.974 12.4555 174.223 12.1042 174.388 11.6634C174.558 11.2192 174.642 10.7254 174.642 10.1818C174.642 9.64489 174.559 9.16098 174.393 8.73011C174.231 8.29593 173.984 7.95289 173.653 7.70099C173.325 7.44579 172.912 7.31818 172.415 7.31818C171.938 7.31818 171.536 7.43916 171.212 7.68111C170.887 7.91974 170.642 8.2545 170.476 8.68537C170.31 9.11293 170.227 9.61174 170.227 10.1818ZM177.605 14V6.36364H178.739V7.51705H178.818C178.957 7.1392 179.209 6.83262 179.574 6.5973C179.938 6.36198 180.349 6.24432 180.807 6.24432C180.893 6.24432 181.001 6.24597 181.13 6.24929C181.259 6.2526 181.357 6.25758 181.423 6.2642V7.45739C181.384 7.44744 181.292 7.43253 181.15 7.41264C181.011 7.38944 180.863 7.37784 180.707 7.37784C180.336 7.37784 180.005 7.45573 179.713 7.61151C179.425 7.76397 179.196 7.97609 179.027 8.24787C178.861 8.51634 178.778 8.82292 178.778 9.16761V14H177.605ZM185.684 14.1591C184.995 14.1591 184.39 13.995 183.869 13.6669C183.352 13.3388 182.948 12.8797 182.656 12.2898C182.368 11.6998 182.224 11.0104 182.224 10.2216C182.224 9.42614 182.368 8.73177 182.656 8.13849C182.948 7.54522 183.352 7.08452 183.869 6.75639C184.39 6.42827 184.995 6.2642 185.684 6.2642C186.373 6.2642 186.977 6.42827 187.494 6.75639C188.014 7.08452 188.418 7.54522 188.707 8.13849C188.998 8.73177 189.144 9.42614 189.144 10.2216C189.144 11.0104 188.998 11.6998 188.707 12.2898C188.418 12.8797 188.014 13.3388 187.494 13.6669C186.977 13.995 186.373 14.1591 185.684 14.1591ZM185.684 13.1051C186.208 13.1051 186.638 12.9709 186.977 12.7024C187.315 12.4339 187.565 12.081 187.727 11.6435C187.89 11.206 187.971 10.732 187.971 10.2216C187.971 9.71117 187.89 9.23556 187.727 8.79474C187.565 8.35393 187.315 7.99763 186.977 7.72585C186.638 7.45407 186.208 7.31818 185.684 7.31818C185.16 7.31818 184.729 7.45407 184.391 7.72585C184.053 7.99763 183.803 8.35393 183.641 8.79474C183.478 9.23556 183.397 9.71117 183.397 10.2216C183.397 10.732 183.478 11.206 183.641 11.6435C183.803 12.081 184.053 12.4339 184.391 12.7024C184.729 12.9709 185.16 13.1051 185.684 13.1051Z" fill="#212121"/>
</svg>
